<svg width="36" height="36" viewBox="0 0 36 36" fill="none" xmlns="http://www.w3.org/2000/svg">
    <path d="M10.9395 28.0606C11.2224 28.3339 11.6013 28.4851 11.9946 28.4816C12.3879 28.4782 12.7641 28.3205 13.0422 28.0424C13.3203 27.7642 13.4781 27.388 13.4815 26.9947C13.4849 26.6014 13.3337 26.2225 13.0605 25.9396L6.621 19.5001H33C33.3978 19.5001 33.7794 19.3421 34.0607 19.0608C34.342 18.7795 34.5 18.3979 34.5 18.0001C34.5 17.6023 34.342 17.2208 34.0607 16.9395C33.7794 16.6582 33.3978 16.5001 33 16.5001H6.621L13.0605 10.0606C13.3337 9.77772 13.4849 9.39882 13.4815 9.00552C13.4781 8.61223 13.3203 8.23601 13.0422 7.95789C12.7641 7.67978 12.3879 7.52203 11.9946 7.51861C11.6013 7.51519 11.2224 7.66639 10.9395 7.93962L1.9395 16.9396C1.65829 17.2209 1.50032 17.6024 1.50032 18.0001C1.50032 18.3979 1.65829 18.7793 1.9395 19.0606L10.9395 28.0606Z" fill="#29364F"/>
</svg>
