<svg width="31" height="30" viewBox="0 0 31 30" fill="none" xmlns="http://www.w3.org/2000/svg">
<path d="M0.00292969 15.0031C0.004675 22.3821 5.37053 28.6651 12.6584 29.8216V19.3381H8.85293V15.0031H12.6629V11.7031C12.4926 10.1394 13.0267 8.58096 14.1204 7.45046C15.2141 6.31997 16.754 5.73459 18.3224 5.85307C19.4482 5.87125 20.5712 5.97151 21.6824 6.15307V9.84157H19.7864C19.1337 9.75607 18.4775 9.97165 18.0026 10.4276C17.5277 10.8835 17.2856 11.5304 17.3444 12.1861V15.0031H21.5009L20.8364 19.3396H17.3444V29.8216C25.2261 28.576 30.7531 21.3777 29.9212 13.4417C29.0893 5.50562 22.1899 -0.39004 14.2212 0.0258341C6.25247 0.441708 0.0041964 7.02353 0.00292969 15.0031Z" fill="white"/>
</svg>
