<svg width="36" height="36" viewBox="0 0 36 36" fill="none" xmlns="http://www.w3.org/2000/svg">
<path d="M7.93938 25.0605C7.66614 24.7776 7.51495 24.3987 7.51836 24.0054C7.52178 23.6121 7.67954 23.2359 7.95765 22.9578C8.23576 22.6797 8.61198 22.5219 9.00527 22.5185C9.39857 22.5151 9.77747 22.6663 10.0604 22.9395L16.4999 29.379L16.4999 3C16.4999 2.60217 16.6579 2.22064 16.9392 1.93934C17.2205 1.65803 17.6021 1.5 17.9999 1.5C18.3977 1.5 18.7792 1.65803 19.0605 1.93934C19.3418 2.22064 19.4999 2.60217 19.4999 3L19.4999 29.379L25.9394 22.9395C26.2223 22.6663 26.6012 22.5151 26.9945 22.5185C27.3878 22.5219 27.764 22.6797 28.0421 22.9578C28.3202 23.2359 28.478 23.6121 28.4814 24.0054C28.4848 24.3987 28.3336 24.7776 28.0604 25.0605L19.0604 34.0605C18.7791 34.3417 18.3976 34.4997 17.9999 34.4997C17.6021 34.4997 17.2207 34.3417 16.9394 34.0605L7.93938 25.0605Z" fill="#29364F"/>
</svg>
