<svg width="68" height="68" viewBox="0 0 68 68" fill="none" xmlns="http://www.w3.org/2000/svg">
<path d="M14.0039 34.004C14.0062 43.8427 21.1607 52.22 30.8779 53.762V39.784H25.8039V34.004H30.8839V29.604C30.6568 27.519 31.3689 25.4412 32.8272 23.9338C34.2854 22.4265 36.3386 21.646 38.4299 21.804C39.931 21.8282 41.4283 21.9619 42.9099 22.204V27.122H40.3819C39.5116 27.008 38.6366 27.2954 38.0034 27.9033C37.3703 28.5112 37.0475 29.3737 37.1259 30.248V34.004H42.6679L41.7819 39.786H37.1259V53.762C47.6349 52.1012 55.0041 42.5035 53.8949 31.9221C52.7858 21.3407 43.5865 13.4798 32.9616 14.0343C22.3366 14.5888 14.0056 23.3646 14.0039 34.004Z" fill="white"/>
<rect x="0.5" y="0.5" width="67" height="67" rx="33.5" stroke="white" stroke-opacity="0.15"/>
</svg>
