<svg width="68" height="68" viewBox="0 0 68 68" fill="none" xmlns="http://www.w3.org/2000/svg">
<path d="M33.9124 30.712V37.614H43.4964C42.6044 42 38.8704 44.52 33.9124 44.52C28.1375 44.4405 23.4977 39.7364 23.4977 33.961C23.4977 28.1855 28.1375 23.4814 33.9124 23.402C36.3128 23.3991 38.6394 24.2321 40.4924 25.758L45.6924 20.558C39.7276 15.3141 31.0164 14.6396 24.3155 18.9028C17.6146 23.1661 14.5345 31.3424 16.7569 38.9672C18.9794 46.592 25.9703 51.8328 33.9124 51.828C42.8464 51.828 50.9704 45.33 50.9704 33.96C50.9566 32.8652 50.8225 31.7754 50.5704 30.71L33.9124 30.712Z" fill="white"/>
<rect x="0.5" y="0.5" width="67" height="67" rx="33.5" stroke="white" stroke-opacity="0.15"/>
</svg>
