<svg width="68" height="68" viewBox="0 0 68 68" fill="none" xmlns="http://www.w3.org/2000/svg">
<path d="M34.0039 52.082C29.0839 52.082 28.5039 52.056 26.5839 51.972C25.0866 51.9228 23.6088 51.6184 22.2139 51.072C19.8005 50.1328 17.8922 48.2237 16.9539 45.81C16.4285 44.4101 16.1451 42.931 16.1159 41.436C16.0039 39.52 16.0039 38.892 16.0039 34.01C16.0039 29.076 16.0299 28.5 16.1159 26.59C16.1458 25.0971 16.4291 23.62 16.9539 22.222C17.8912 19.8051 19.8026 17.8944 22.2199 16.958C23.6172 16.4304 25.0946 16.1463 26.5879 16.118C28.4979 16.01 29.1259 16.01 34.0039 16.01C38.9639 16.01 39.5339 16.036 41.4239 16.118C42.9211 16.1465 44.4024 16.4306 45.8039 16.958C48.2205 17.8954 50.1316 19.8058 51.0699 22.222C51.6042 23.6404 51.889 25.1405 51.9119 26.656C52.0239 28.572 52.0239 29.198 52.0239 34.078C52.0239 38.958 51.9959 39.598 51.9119 41.492C51.8821 42.9884 51.5981 44.4689 51.0719 45.87C50.1312 48.2854 48.22 50.1952 45.8039 51.134C44.4044 51.6584 42.9261 51.9417 41.4319 51.972C39.5219 52.082 38.8959 52.082 34.0039 52.082ZM33.9359 19.176C29.0439 19.176 28.5359 19.2 26.6259 19.286C25.4859 19.3011 24.3569 19.5115 23.2879 19.908C21.7094 20.512 20.4604 21.756 19.8499 23.332C19.4503 24.4126 19.2399 25.554 19.2279 26.706C19.1219 28.644 19.1219 29.152 19.1219 34.01C19.1219 38.81 19.1399 39.392 19.2279 41.318C19.2458 42.4584 19.4561 43.5876 19.8499 44.658C20.4613 46.233 21.7101 47.476 23.2879 48.08C24.3561 48.4792 25.4856 48.6896 26.6259 48.702C28.5619 48.814 29.0719 48.814 33.9359 48.814C38.8419 48.814 39.3499 48.79 41.2439 48.702C42.3847 48.6881 43.5146 48.4777 44.5839 48.08C46.1528 47.4708 47.3938 46.2306 48.0039 44.662C48.4027 43.5805 48.6131 42.4386 48.6259 41.286H48.6479C48.7339 39.374 48.7339 38.864 48.7339 33.978C48.7339 29.092 48.7119 28.578 48.6259 26.668C48.608 25.5289 48.3977 24.401 48.0039 23.332C47.3952 21.7612 46.154 20.5186 44.5839 19.908C43.5148 19.5095 42.3848 19.2991 41.2439 19.286C39.3099 19.176 38.8039 19.176 33.9359 19.176ZM34.0039 43.248C30.2639 43.2504 26.8907 40.9995 25.4576 37.5449C24.0245 34.0904 24.8137 30.1127 27.4572 27.4669C30.1006 24.8212 34.0776 24.0286 37.5334 25.4587C40.9892 26.8888 43.2431 30.26 43.2439 34C43.2384 39.1021 39.106 43.2381 34.0039 43.248ZM34.0039 27.996C30.6902 27.996 28.0039 30.6823 28.0039 33.996C28.0039 37.3097 30.6902 39.996 34.0039 39.996C37.3176 39.996 40.0039 37.3097 40.0039 33.996C39.9962 30.6855 37.3144 28.0037 34.0039 27.996ZM43.6039 26.57C42.4148 26.5656 41.4537 25.5992 41.4559 24.41C41.4581 23.2209 42.4227 22.258 43.6119 22.258C44.8011 22.258 45.7657 23.2208 45.7679 24.41C45.7684 24.9837 45.5405 25.5341 45.1344 25.9394C44.7284 26.3447 44.1776 26.5716 43.6039 26.57Z" fill="white"/>
<rect x="0.5" y="0.5" width="67" height="67" rx="33.5" stroke="white" stroke-opacity="0.15"/>
</svg>
