<svg width="14" height="19" viewBox="0 0 14 19" fill="none" xmlns="http://www.w3.org/2000/svg">
<path d="M7 18.5C5.73693 17.4227 4.56619 16.2416 3.5 14.9691C1.9 13.0581 8.83662e-07 10.212 8.83662e-07 7.50005C-0.00141728 4.6676 1.70425 2.11344 4.32107 1.02945C6.93789 -0.0545453 9.95007 0.545291 11.952 2.54905C13.2685 3.85966 14.0059 5.64244 14 7.50005C14 10.212 12.1 13.0581 10.5 14.9691C9.43382 16.2416 8.26307 17.4227 7 18.5ZM7 4.50005C5.92821 4.50005 4.93782 5.07185 4.40193 6.00005C3.86603 6.92825 3.86603 8.07185 4.40193 9.00005C4.93782 9.92825 5.92821 10.5001 7 10.5001C8.65686 10.5001 10 9.1569 10 7.50005C10 5.8432 8.65686 4.50005 7 4.50005Z" fill="white"/>
</svg>
