<svg width="18" height="21" viewBox="0 0 18 21" fill="none" xmlns="http://www.w3.org/2000/svg">
<path d="M16 16.5H6C5.46957 16.5 4.96086 16.2893 4.58579 15.9142C4.21071 15.5391 4 15.0304 4 14.5V2.5C4 1.96957 4.21071 1.46086 4.58579 1.08579C4.96086 0.710714 5.46957 0.5 6 0.5H7V5.5L9 4L11 5.5V0.5H16C16.5304 0.5 17.0391 0.710714 17.4142 1.08579C17.7893 1.46086 18 1.96957 18 2.5V14.5C18 15.0304 17.7893 15.5391 17.4142 15.9142C17.0391 16.2893 16.5304 16.5 16 16.5ZM14 18.5V20.5H2C1.46957 20.5 0.960859 20.2893 0.585786 19.9142C0.210714 19.5391 0 19.0304 0 18.5V4.5H2V18.5H14Z" fill="#0A0511"/>
</svg>
